# xmcd CD database file
#
# Track frame offsets:
#	150
#	11874
#	23379
#	37662
#	49119
#	56989
#	72029
#	88537
#	99860
#	113915
#	124329
#	137377
#
# Disc length: 2035 seconds
#
# Revision: 0
# Processed by: cddbd v1.5PL3 Copyright (c) Steve Scherf et al.
# Submitted via: CDex 1.51
#
DISCID=9007f10c
DTITLE=The West Coast Pinups - Woman's Work
DYEAR=1900
DGENRE=Country
TTITLE0=Heartache For Me
TTITLE1=Painting the Town Again
TTITLE2=Close Down The Honky Tonks
TTITLE3=Big City
TTITLE4=Bootheel Express
TTITLE5=The Ballad of Billy and Selena
TTITLE6=Here Comes Those Blues Again
TTITLE7=Dancin' Six Nights a Week
TTITLE8=B-Side Boots
TTITLE9=Blinded By My Tears
TTITLE10=Don't Come Knocking
TTITLE11=Follow The Wiskey
EXTD=
EXTT0=
EXTT1=
EXTT2=
EXTT3=
EXTT4=
EXTT5=
EXTT6=
EXTT7=
EXTT8=
EXTT9=
EXTT10=
EXTT11=
PLAYORDER=
